<svg id="svg" xmlns="http://www.w3.org/2000/svg" xmlns:xlink="http://www.w3.org/1999/xlink" width="16" height="16" viewBox="0, 0, 400,400"><g id="svgg"><path id="path0" d="M49.893 60.505 L 0.099 85.313 0.050 99.843 L 0.000 114.374 36.561 96.096 L 73.121 77.819 108.777 95.628 L 144.433 113.438 119.597 125.785 C 89.546 140.724,89.375 140.860,89.375 149.688 C 89.375 155.192,93.640 162.500,96.852 162.500 C 97.159 162.500,97.812 162.901,98.301 163.391 C 98.791 163.881,115.445 172.409,135.310 182.343 L 171.428 200.404 85.870 243.232 L 0.313 286.061 0.145 300.537 L -0.023 315.013 50.142 289.929 L 100.308 264.845 200.200 314.766 L 300.092 364.688 349.890 339.581 L 399.688 314.475 399.855 300.045 L 400.023 285.615 363.451 303.898 L 326.879 322.181 291.223 304.372 L 255.567 286.563 280.403 274.215 C 294.063 267.424,305.916 261.237,306.743 260.465 C 313.521 254.142,310.943 239.867,302.541 237.201 C 301.831 236.975,301.250 236.528,301.250 236.207 C 301.250 235.886,285.359 227.680,265.938 217.971 C 246.516 208.261,230.625 200.175,230.625 200.002 C 230.625 199.828,268.734 180.631,315.313 157.343 L 400.000 115.001 400.000 100.625 L 400.000 86.248 350.625 110.937 L 301.251 135.626 201.251 85.626 C 146.251 58.125,100.900 35.641,100.470 35.661 C 100.039 35.681,77.280 46.861,49.893 60.505 M209.061 145.779 C 228.484 155.488,244.375 163.579,244.375 163.758 C 244.375 163.937,240.577 165.977,235.935 168.290 L 227.496 172.496 191.562 154.533 L 155.629 136.570 163.908 132.380 C 168.462 130.076,172.538 128.176,172.967 128.158 C 173.396 128.140,189.638 136.069,209.061 145.779 M209.533 245.705 L 244.688 263.285 235.776 267.729 L 226.864 272.173 191.869 254.685 C 172.622 245.066,156.875 237.049,156.875 236.869 C 156.875 236.521,173.108 228.222,173.908 228.161 C 174.167 228.141,190.199 236.036,209.533 245.705 " stroke="none" fill="#003366" fill-rule="evenodd"></path></g></svg>